<svg xmlns="http://www.w3.org/2000/svg" width="25.201" height="20.663" viewBox="0 0 25.201 20.663">
  <path id="Icon_awesome-list-ul" data-name="Icon awesome-list-ul" d="M2.269,3.375A2.269,2.269,0,1,0,4.538,5.644,2.269,2.269,0,0,0,2.269,3.375Zm0,7.563a2.269,2.269,0,1,0,2.269,2.269,2.269,2.269,0,0,0-2.269-2.269Zm0,7.563A2.269,2.269,0,1,0,4.538,20.77,2.269,2.269,0,0,0,2.269,18.5Zm21.176.756H8.319a.756.756,0,0,0-.756.756v1.513a.756.756,0,0,0,.756.756H23.445a.756.756,0,0,0,.756-.756V20.013A.756.756,0,0,0,23.445,19.257Zm0-15.126H8.319a.756.756,0,0,0-.756.756V6.4a.756.756,0,0,0,.756.756H23.445A.756.756,0,0,0,24.2,6.4V4.888A.756.756,0,0,0,23.445,4.131Zm0,7.563H8.319a.756.756,0,0,0-.756.756v1.513a.756.756,0,0,0,.756.756H23.445a.756.756,0,0,0,.756-.756V12.45A.756.756,0,0,0,23.445,11.694Z" transform="translate(0.5 -2.875)" fill="none" stroke="#000" stroke-width="1"/>
</svg>
