<svg xmlns="http://www.w3.org/2000/svg" width="24.461" height="24.461" viewBox="0 0 24.461 24.461">
  <path id="Icon_awesome-facebook-square" data-name="Icon awesome-facebook-square" d="M20.947,2.25H2.514A2.514,2.514,0,0,0,0,4.764V23.2a2.514,2.514,0,0,0,2.514,2.514H9.7V17.735H6.4V13.981H9.7V11.119c0-3.255,1.938-5.053,4.905-5.053a19.987,19.987,0,0,1,2.907.253V9.515H15.877a1.877,1.877,0,0,0-2.117,2.028v2.438h3.6l-.576,3.754H13.76v7.976h7.188A2.514,2.514,0,0,0,23.461,23.2V4.764A2.514,2.514,0,0,0,20.947,2.25Z" transform="translate(0.5 -1.75)" fill="none" stroke="#000" stroke-width="1"/>
</svg>
