<svg xmlns="http://www.w3.org/2000/svg" width="90.577" height="104.323" viewBox="0 0 90.577 104.323">
  <path id="Icon_metro-fire" data-name="Icon metro-fire" d="M30.2,106.251c-6.953-14.467-3.25-22.757,2.094-30.568a48.7,48.7,0,0,0,7.36-17.02s4.6,5.98,2.76,15.333c8.127-9.047,9.66-23.46,8.434-28.981,18.37,12.838,26.221,40.635,15.64,61.235,56.274-31.84,14-79.482,6.638-84.849,2.453,5.367,2.919,14.451-2.038,18.86C62.7,8.448,41.954,1.928,41.954,1.928c2.453,16.407-8.894,34.347-19.835,47.753-.384-6.542-.793-11.057-4.233-17.317-.772,11.885-9.855,21.572-12.314,33.48C2.24,81.97,8.067,93.777,30.2,106.251Z" transform="translate(-4.701 -1.928)" fill="#fbd911"/>
</svg>
