<svg xmlns="http://www.w3.org/2000/svg" width="21.242" height="21.242" viewBox="0 0 21.242 21.242">
  <g id="Icon_feather-instagram" data-name="Icon feather-instagram" transform="translate(0.5 0.5)">
    <path id="Path_1" data-name="Path 1" d="M8.061,3H18.182a5.061,5.061,0,0,1,5.061,5.061V18.182a5.061,5.061,0,0,1-5.061,5.061H8.061A5.061,5.061,0,0,1,3,18.182V8.061A5.061,5.061,0,0,1,8.061,3Z" transform="translate(-3 -3)" fill="none" stroke="#fff" stroke-linecap="round" stroke-linejoin="round" stroke-width="1"/>
    <path id="Path_2" data-name="Path 2" d="M20.118,15.39a4.048,4.048,0,1,1-3.411-3.411A4.048,4.048,0,0,1,20.118,15.39Z" transform="translate(-5.948 -5.906)" fill="none" stroke="#fff" stroke-linecap="round" stroke-linejoin="round" stroke-width="1"/>
    <path id="Path_3" data-name="Path 3" d="M26.25,9.75h0" transform="translate(-10.562 -5.195)" fill="none" stroke="#fff" stroke-linecap="round" stroke-linejoin="round" stroke-width="1"/>
  </g>
</svg>
