<svg xmlns="http://www.w3.org/2000/svg" width="90.121" height="119.394" viewBox="0 0 90.121 119.394">
  <path id="Icon_weather-lightning" data-name="Icon weather-lightning" d="M9.552,126.486h2.5L56.219,61.14q.867-1.733-.963-1.733H37.026L56.219,24.423c.578-1.155.128-1.733-1.284-1.733H30.478a2.331,2.331,0,0,0-1.862,1.155l-17.845,47.5c-.128,1.155.257,1.733,1.22,1.733H29.644ZM64.114,85.854h1.733L99.355,36.62a1.462,1.462,0,0,0,.257-1.284c-.128-.321-.514-.449-1.091-.449H85.04L99.034,9.018q1.155-1.926-1.155-1.926H80.29a2.069,2.069,0,0,0-1.926,1.22L65.013,43.488a1.384,1.384,0,0,0,.064,1.348,1.429,1.429,0,0,0,1.22.449H79.391Z" transform="translate(-9.552 -7.092)" fill="#fbd911"/>
</svg>
