<svg xmlns="http://www.w3.org/2000/svg" width="24.837" height="24.837" viewBox="0 0 24.837 24.837">
  <path id="Icon_simple-materialdesign" data-name="Icon simple-materialdesign" d="M12.418,0A12.418,12.418,0,1,0,24.837,12.418,12.424,12.424,0,0,0,12.418,0Zm0,.776a11.586,11.586,0,0,1,7.729,2.949H4.688A11.587,11.587,0,0,1,12.418.776ZM4.982,4.5H19.855L12.418,19.376Zm-1.256.186V20.149a11.6,11.6,0,0,1,0-15.459Zm17.386,0a11.6,11.6,0,0,1,0,15.46ZM4.5,5.278,12.03,20.335H4.5Zm15.833,0V20.335H12.806l7.53-15.057ZM4.691,21.111H20.148a11.6,11.6,0,0,1-15.458,0Z"/>
</svg>
