<svg xmlns="http://www.w3.org/2000/svg" width="25.201" height="25.201" viewBox="0 0 25.201 25.201">
  <path id="Icon_awesome-user-alt" data-name="Icon awesome-user-alt" d="M12.1,13.613A6.807,6.807,0,1,0,5.294,6.807,6.808,6.808,0,0,0,12.1,13.613Zm6.05,1.513h-2.6a8.228,8.228,0,0,1-6.892,0H6.05A6.05,6.05,0,0,0,0,21.176v.756A2.269,2.269,0,0,0,2.269,24.2H21.932A2.269,2.269,0,0,0,24.2,21.932v-.756A6.05,6.05,0,0,0,18.151,15.126Z" transform="translate(0.5 0.5)" fill="none" stroke="#000" stroke-width="1"/>
</svg>
