<svg xmlns="http://www.w3.org/2000/svg" width="26.707" height="22.905" viewBox="0 0 26.707 22.905">
  <g id="Icon_feather-image" data-name="Icon feather-image" transform="translate(0.5 0.5)">
    <g id="Group_21" data-name="Group 21">
      <path id="Path_10" data-name="Path 10" d="M7.333,4.5H27.167A2.648,2.648,0,0,1,30,6.911V23.787A2.648,2.648,0,0,1,27.167,26.2H7.333A2.648,2.648,0,0,1,4.5,23.787V6.911A2.648,2.648,0,0,1,7.333,4.5Z" transform="translate(-4.5 -4.5)" fill="none" stroke="#000" stroke-linecap="round" stroke-linejoin="round" stroke-width="1"/>
    </g>
    <path id="Path_11" data-name="Path 11" d="M14.75,12.625A2.125,2.125,0,1,1,12.625,10.5,2.125,2.125,0,0,1,14.75,12.625Z" transform="translate(-4.833 -5.847)" fill="none" stroke="#000" stroke-linecap="round" stroke-linejoin="round" stroke-width="1"/>
    <path id="Path_12" data-name="Path 12" d="M30.167,22.083,23.083,15,7.5,30.583" transform="translate(-4.667 -8.885)" fill="none" stroke="#000" stroke-linecap="round" stroke-linejoin="round" stroke-width="1"/>
  </g>
</svg>
