<svg xmlns="http://www.w3.org/2000/svg" width="28.963" height="28.99" viewBox="0 0 28.963 28.99">
  <path id="Icon_awesome-palette" data-name="Icon awesome-palette" d="M11.146.272A13.893,13.893,0,0,0,.284,11.1C-1.735,21.3,7.469,28.9,14.4,27.829a3.444,3.444,0,0,0,2.319-5,3.691,3.691,0,0,1,3.323-5.368h4.348A3.57,3.57,0,0,0,27.933,13.9,13.977,13.977,0,0,0,11.146.272ZM5.238,17.458a1.746,1.746,0,1,1,1.746-1.746A1.744,1.744,0,0,1,5.238,17.458Zm1.746-6.983A1.746,1.746,0,1,1,8.729,8.729,1.744,1.744,0,0,1,6.983,10.474Zm6.983-3.492a1.746,1.746,0,1,1,1.746-1.746A1.744,1.744,0,0,1,13.967,6.983Zm6.983,3.492A1.746,1.746,0,1,1,22.7,8.729,1.744,1.744,0,0,1,20.95,10.474Z" transform="translate(0.53 0.531)" fill="none" stroke="#000" stroke-width="1"/>
</svg>
