<svg xmlns="http://www.w3.org/2000/svg" width="29.739" height="23.981" viewBox="0 0 29.739 23.981">
  <path id="Icon_awesome-twitter" data-name="Icon awesome-twitter" d="M25.189,9.063c.018.249.018.5.018.748,0,7.606-5.789,16.371-16.371,16.371A16.26,16.26,0,0,1,0,23.6a11.9,11.9,0,0,0,1.389.071,11.523,11.523,0,0,0,7.143-2.458,5.764,5.764,0,0,1-5.38-3.99,7.256,7.256,0,0,0,1.087.089,6.086,6.086,0,0,0,1.514-.2A5.755,5.755,0,0,1,1.14,11.468V11.4a5.8,5.8,0,0,0,2.6.73,5.762,5.762,0,0,1-1.781-7.7,16.355,16.355,0,0,0,11.864,6.021,6.5,6.5,0,0,1-.143-1.318A5.759,5.759,0,0,1,23.639,5.2a11.328,11.328,0,0,0,3.652-1.389,5.738,5.738,0,0,1-2.53,3.171,11.535,11.535,0,0,0,3.313-.891,12.369,12.369,0,0,1-2.886,2.975Z" transform="translate(0.271 -2.701)" fill="none" stroke="#fff" stroke-width="1"/>
</svg>
