<svg xmlns="http://www.w3.org/2000/svg" width="28.786" height="20.537" viewBox="0 0 28.786 20.537">
  <path id="Icon_awesome-youtube" data-name="Icon awesome-youtube" d="M28.255,7.557A3.491,3.491,0,0,0,25.8,5.084C23.632,4.5,14.943,4.5,14.943,4.5s-8.689,0-10.856.584A3.491,3.491,0,0,0,1.631,7.557a36.626,36.626,0,0,0-.581,6.731,36.626,36.626,0,0,0,.581,6.731,3.439,3.439,0,0,0,2.457,2.433c2.167.584,10.856.584,10.856.584s8.689,0,10.856-.584a3.439,3.439,0,0,0,2.457-2.433,36.626,36.626,0,0,0,.581-6.731,36.626,36.626,0,0,0-.581-6.731ZM12.1,18.42V10.157l7.262,4.132L12.1,18.42Z" transform="translate(-0.55 -4)" fill="none" stroke="#fff" stroke-width="1"/>
</svg>
